<?xml version="1.0" standalone="no"?>
<!DOCTYPE svg PUBLIC "-//W3C//DTD SVG 20010904//EN"
 "http://www.w3.org/TR/2001/REC-SVG-20010904/DTD/svg10.dtd">
<svg version="1.0" xmlns="http://www.w3.org/2000/svg"
 width="2000.000000pt" height="600.000000pt" viewBox="0 0 2000.000000 600.000000"
 preserveAspectRatio="xMidYMid meet">

<g transform="translate(0.000000,600.000000) scale(0.100000,-0.100000)"
fill="#000000" stroke="none">
<path d="M0 3000 l0 -3000 4970 0 4970 0 0 985 c0 542 4 985 8 985 5 0 14 -12
21 -26 14 -32 167 -219 209 -256 16 -14 32 -32 35 -40 11 -32 25 14 37 127 7
66 16 138 21 160 8 39 7 41 -34 79 -23 21 -62 57 -87 80 -25 23 -81 73 -125
111 -44 38 -83 73 -87 79 -4 6 -8 36 -8 66 0 30 4 60 8 66 4 7 55 35 114 62
58 28 175 84 260 125 410 199 482 234 606 293 l132 63 0 35 c0 34 -12 47 -25
27 -13 -22 -119 -71 -139 -65 -18 6 -19 5 -7 -10 12 -14 11 -16 -8 -16 -11 0
-21 -4 -21 -10 0 -5 -5 -10 -12 -10 -6 0 -3 9 7 20 27 30 13 33 -34 8 -42 -22
-49 -36 -30 -55 16 -16 -6 -21 -168 -33 -120 -9 -158 -9 -232 4 -115 20 -127
25 -189 81 l-52 47 26 34 c39 50 104 78 130 55 5 -4 34 -22 64 -38 30 -17 76
-42 103 -57 26 -14 67 -37 90 -50 l44 -24 74 39 c40 21 79 39 86 39 7 0 20 12
29 27 10 16 28 45 41 65 24 35 24 38 12 111 -13 80 -21 95 -59 115 l-25 13 24
-21 25 -21 -21 -42 c-11 -23 -27 -54 -34 -69 -15 -34 -108 -128 -126 -128 -7
0 -32 6 -55 14 -24 8 -77 24 -118 36 -107 32 -161 93 -130 149 7 14 -3 48 -41
137 -59 142 -68 163 -81 187 -10 20 -5 32 10 23 5 -3 35 -45 68 -93 103 -156
109 -149 22 24 -49 96 -70 126 -93 137 -26 13 -27 16 -11 22 10 4 21 3 25 -2
8 -11 51 -36 51 -29 0 2 -23 20 -52 40 -34 23 -56 31 -62 25 -14 -14 -29 -12
-23 3 6 15 -11 41 -33 50 -8 4 9 5 38 3 57 -3 62 1 31 29 -16 16 -19 26 -13
60 7 44 24 62 37 40 4 -8 14 -12 22 -9 8 4 15 1 15 -6 0 -16 25 -6 26 11 1 8
2 20 3 27 0 6 6 12 12 12 7 0 9 -10 7 -25 -7 -32 8 -42 31 -21 20 18 31 20 31
6 0 -12 59 -70 71 -70 5 0 9 -7 9 -16 0 -9 8 -18 19 -21 13 -3 17 -11 14 -24
-3 -11 0 -19 6 -19 12 0 54 -42 94 -93 12 -16 27 -34 32 -40 6 -7 26 -33 45
-59 19 -26 41 -50 48 -52 8 -4 72 53 155 134 78 77 145 140 149 140 4 0 8 7 8
15 0 8 -33 32 -78 55 -42 22 -93 48 -112 58 -19 11 -66 34 -104 53 -37 19 -81
48 -96 66 -15 17 -59 51 -97 75 -146 92 -289 188 -308 208 -12 11 -24 20 -29
20 -5 0 -30 16 -56 35 -26 19 -52 35 -56 35 -5 1 -19 9 -32 20 -18 15 -23 27
-20 57 l3 38 18 -33 c10 -18 23 -32 30 -29 6 2 20 -6 29 -19 12 -14 25 -20 37
-17 11 3 28 -4 39 -15 12 -12 28 -18 40 -15 12 3 30 -5 47 -21 15 -14 34 -26
41 -26 8 0 19 -9 26 -21 7 -11 56 -48 108 -83 123 -81 132 -85 90 -44 -49 48
-162 138 -173 138 -9 0 -51 33 -117 93 -19 18 -58 51 -86 74 l-52 43 -7 124
c-7 126 2 180 56 353 l10 33 37 -19 c20 -10 48 -32 62 -48 102 -117 157 -180
172 -197 65 -73 72 -88 177 -404 94 -281 106 -324 92 -332 -14 -8 -14 -9 2
-10 11 0 23 -12 30 -30 14 -38 19 -38 36 3 8 17 52 117 99 221 79 176 84 192
79 238 -5 43 -4 48 8 38 10 -8 15 -31 15 -66 0 -57 10 -68 28 -31 26 52 44
151 49 275 l6 133 -32 12 c-17 6 -31 17 -31 24 0 7 -4 13 -9 13 -6 0 -21 11
-36 24 -24 23 -25 24 -11 67 8 24 20 71 26 104 6 33 16 76 21 96 5 20 9 46 9
58 0 23 -15 28 -24 9 -3 -7 -3 1 0 18 7 42 -2 44 -204 44 -115 0 -161 3 -156
11 6 11 611 6 622 -6 3 -3 -6 -5 -21 -5 -52 0 -57 -7 -57 -79 0 -36 4 -100 10
-141 5 -41 14 -131 20 -200 6 -69 15 -165 20 -215 5 -49 12 -124 15 -166 l6
-76 82 -49 c45 -27 86 -51 92 -53 5 -2 29 -17 53 -33 66 -45 64 -24 -3 35 -33
28 -90 81 -127 117 l-68 65 -16 165 c-44 456 -51 555 -36 546 7 -4 12 -25 12
-47 0 -43 5 -47 31 -23 17 16 19 15 28 -7 9 -25 29 -169 34 -254 4 -56 58
-275 69 -275 13 0 30 73 29 127 0 48 4 62 29 93 26 33 30 46 30 98 0 61 0 61
-50 103 -44 37 -50 47 -50 80 0 30 -7 45 -38 76 -44 44 -85 110 -76 124 3 5 9
7 14 4 4 -3 15 -2 23 1 15 5 7 30 -47 147 l-13 28 -629 6 c-346 3 -630 6 -632
8 -2 2 -6 120 -9 264 l-6 261 -4964 0 -4963 0 0 -3000z m9636 2578 c17 -18 55
-64 85 -103 45 -58 54 -76 54 -109 l0 -41 75 -13 c41 -8 78 -18 81 -24 4 -6 6
-79 5 -162 l-1 -151 -37 -3 c-29 -3 -38 -9 -48 -32 -18 -44 -130 -144 -130
-116 0 2 9 21 19 43 42 85 51 113 51 167 l0 56 -27 -13 c-15 -6 -40 -24 -57
-39 -34 -32 -54 -27 -32 8 18 26 21 64 6 64 -5 0 -10 4 -10 10 0 5 7 7 15 4 9
-4 15 0 15 9 0 19 -24 29 -39 14 -8 -8 -11 -8 -11 1 0 20 -17 13 -23 -9 -4
-13 -10 -18 -17 -14 -7 4 -16 1 -21 -6 -4 -8 -13 -14 -19 -14 -6 0 -19 -13
-28 -28 -16 -26 -16 -29 1 -58 21 -37 22 -63 3 -56 -10 4 -12 0 -9 -14 6 -21
33 -25 51 -7 7 7 12 8 12 2 0 -13 -21 -34 -34 -34 -6 0 -31 18 -55 40 -48 43
-60 47 -80 28 -11 -10 -14 -10 -18 0 -6 14 -33 16 -33 2 0 -5 -7 -10 -15 -10
-22 0 -19 6 28 49 91 83 131 112 149 108 11 -3 18 0 18 10 0 8 -4 12 -9 9 -13
-8 -41 4 -41 18 0 12 17 29 58 58 23 16 23 16 -39 37 -78 26 -123 27 -148 2
-30 -30 -70 -123 -75 -176 -3 -27 -10 -65 -16 -83 -7 -18 -10 -39 -6 -47 7
-19 -1 -23 -66 -36 -92 -19 -119 -26 -260 -67 -50 -14 -68 -16 -68 -7 0 7 42
75 93 151 50 77 98 150 105 164 7 14 27 42 45 62 31 36 38 39 171 68 77 16
154 30 172 30 17 0 72 -13 122 -30 109 -36 118 -36 125 -7 3 12 8 32 12 43 6
19 2 22 -32 28 -21 4 -76 20 -123 35 -47 16 -105 34 -130 41 -25 6 -55 16 -67
21 -14 5 -32 3 -50 -5 -15 -8 -46 -21 -68 -31 -22 -9 -53 -22 -70 -29 -56 -24
-150 -49 -177 -47 -28 1 -38 -13 -15 -22 6 -3 -7 -2 -30 0 -24 3 -55 1 -70 -6
-16 -6 -44 -13 -63 -15 -19 -3 -47 -8 -62 -12 -17 -4 -28 -2 -28 4 0 10 260
260 289 277 9 5 77 13 151 17 169 11 380 24 401 26 8 1 29 -13 45 -30z m-4290
-275 c14 -5 9 -9 -21 -17 -21 -6 -40 -17 -43 -25 -4 -11 5 -12 43 -7 37 6 46
5 43 -6 -3 -7 -18 -14 -34 -16 -35 -4 -49 -16 -41 -36 5 -13 10 -14 40 -1 39
16 71 5 35 -12 -13 -6 -42 -14 -65 -17 l-43 -6 0 39 c0 21 -3 52 -6 69 -5 24
-2 31 12 35 30 7 61 8 80 0z m-128 -39 c2 -16 9 -32 15 -36 9 -6 9 -12 0 -28
-7 -11 -13 -27 -13 -35 0 -22 -17 -18 -23 5 -3 14 -14 20 -31 20 -22 0 -26 -4
-26 -30 0 -16 -5 -30 -11 -30 -16 0 -40 69 -37 108 4 43 25 54 30 15 2 -22 8
-28 28 -28 19 0 26 6 28 25 5 40 11 52 25 48 6 -3 14 -18 15 -34z m3739 30
c-3 -3 -12 -4 -19 -1 -8 3 -5 6 6 6 11 1 17 -2 13 -5z m-2371 -57 c3 -10 -1
-26 -9 -35 -8 -9 -29 -45 -46 -79 l-31 -62 32 -58 c17 -32 40 -71 50 -88 10
-16 18 -36 18 -44 0 -7 14 -33 30 -58 17 -24 30 -47 30 -50 0 -3 17 -26 39
-52 43 -52 61 -83 61 -105 0 -30 -27 -16 -66 32 -38 47 -59 70 -200 215 -83
86 -85 86 -125 20 l-22 -35 22 -90 22 -90 -22 -54 c-24 -59 -37 -64 -52 -18
-12 33 -34 53 -60 54 -10 0 -20 7 -23 15 -3 8 -34 32 -69 54 -35 22 -90 68
-123 101 -33 33 -64 60 -68 60 -12 0 -49 -56 -68 -101 -8 -19 -22 -41 -30 -48
-13 -11 -15 -28 -11 -85 2 -39 7 -88 11 -108 6 -35 4 -38 -17 -38 -48 1 -107
91 -130 200 -21 96 -47 185 -54 183 -4 -1 -21 -26 -38 -57 l-30 -56 40 -52
c53 -69 83 -130 83 -167 0 -43 -14 -45 -33 -5 -9 19 -23 37 -31 40 -8 3 -34
30 -57 60 -23 30 -45 54 -49 54 -5 0 -33 -35 -63 -78 -77 -110 -172 -202 -208
-202 -33 0 -34 5 -19 115 10 72 15 104 50 284 22 111 25 161 11 161 -4 0 -21
-44 -36 -97 -15 -54 -37 -125 -50 -158 -40 -109 -57 -159 -69 -208 -13 -54
-59 -107 -73 -83 -4 7 -19 13 -32 12 -20 -1 -28 10 -61 95 -21 53 -43 121 -50
150 -7 30 -25 99 -41 154 -54 193 -52 200 48 201 37 1 106 8 153 17 47 9 117
17 155 17 39 0 76 5 81 10 7 7 23 0 50 -20 21 -16 44 -30 49 -30 14 0 49 -55
75 -117 15 -35 28 -53 39 -52 9 1 35 23 59 49 l43 48 -20 63 c-18 58 -25 97
-22 124 1 7 76 8 217 4 192 -6 219 -9 242 -26 37 -28 37 -37 -3 -77 l-36 -37
37 -67 c34 -62 175 -218 186 -206 3 2 -3 39 -13 82 -10 42 -33 151 -50 241
l-32 164 23 19 c29 24 65 23 90 -2 17 -17 18 -24 9 -41 -6 -12 -8 -37 -4 -58
3 -20 9 -63 13 -96 4 -37 12 -60 19 -60 10 0 83 107 83 122 0 2 27 44 60 94
l61 89 24 -17 c14 -10 27 -26 31 -36z m-1526 29 c0 -9 -12 -16 -27 -18 -22 -2
-29 -9 -31 -31 -2 -16 1 -42 7 -60 8 -21 8 -34 1 -41 -15 -15 -27 7 -40 72
-11 50 -12 52 -46 52 -86 0 1 37 94 39 30 1 42 -3 42 -13z m3815 -31 c-14 -15
-28 -25 -31 -22 -3 3 7 17 22 31 36 33 44 25 9 -9z m745 -160 c0 -1 -7 -8 -15
-15 -13 -10 -15 -9 -15 8 0 15 5 20 15 16 8 -4 15 -7 15 -9z m660 -30 c7 -8
18 -15 25 -15 6 0 20 -9 30 -20 10 -11 26 -20 37 -20 10 0 18 -4 18 -10 0 -5
8 -10 18 -10 9 0 28 -9 42 -20 14 -11 31 -20 38 -20 6 0 12 -4 12 -10 0 -5 9
-10 20 -10 11 0 20 -4 20 -10 0 -5 7 -10 15 -10 8 0 15 -4 15 -10 0 -5 7 -10
15 -10 8 0 15 -4 15 -10 0 -5 8 -10 17 -10 9 0 13 -3 10 -6 -6 -7 -84 29 -142
66 -16 10 -37 19 -46 19 -9 1 -22 7 -28 15 -7 8 -24 17 -39 21 -15 4 -30 12
-34 18 -5 8 -8 6 -8 -5 0 -11 8 -18 20 -18 11 0 20 -7 20 -15 0 -8 9 -15 20
-15 11 0 20 -4 20 -10 0 -5 8 -10 18 -10 19 -1 63 -30 44 -30 -7 0 -20 4 -30
9 -9 5 -39 20 -67 34 -27 14 -56 37 -63 51 -7 14 -17 26 -23 26 -5 0 -9 5 -9
11 0 6 -10 19 -22 30 -18 14 -20 18 -7 19 9 0 22 -7 29 -15z m627 -17 c-3 -7
-5 -2 -5 12 0 14 2 19 5 13 2 -7 2 -19 0 -25z m-78 -109 c-35 -32 -71 -59 -79
-59 -8 0 19 32 60 70 41 38 77 65 79 59 2 -6 -25 -38 -60 -70z m-1469 5 c0 -2
-9 -4 -20 -4 -11 0 -20 4 -20 9 0 5 9 7 20 4 11 -3 20 -7 20 -9z m107 -40 c-3
-3 -12 -4 -19 -1 -8 3 -5 6 6 6 11 1 17 -2 13 -5z m1040 -20 c-3 -3 -12 -4
-19 -1 -8 3 -5 6 6 6 11 1 17 -2 13 -5z m40 -20 c-3 -3 -12 -4 -19 -1 -8 3 -5
6 6 6 11 1 17 -2 13 -5z m243 -114 c0 -5 -2 -10 -4 -10 -3 0 -8 5 -11 10 -3 6
-1 10 4 10 6 0 11 -4 11 -10z m80 -79 c0 -5 -6 -14 -14 -20 -11 -9 -16 -9 -21
0 -4 6 -1 15 6 20 18 11 29 11 29 0z m-932 -69 c3 -39 5 -42 33 -42 16 0 29
-4 29 -9 0 -14 -28 -33 -39 -27 -14 9 -21 -20 -21 -95 0 -87 -12 -94 -87 -54
-52 29 -53 30 -53 75 0 64 21 115 66 161 49 50 68 48 72 -9z m-2973 -57 c-50
-23 -166 -57 -240 -70 l-70 -12 3 -33 c3 -43 20 -63 46 -55 12 3 59 8 105 11
46 3 94 10 108 15 30 11 84 12 101 0 15 -9 -11 -21 -93 -42 -105 -26 -218 -66
-226 -81 -7 -13 8 -207 17 -217 2 -2 74 8 161 22 169 28 321 39 324 22 3 -14
-67 -52 -131 -71 -30 -9 -96 -29 -146 -45 -50 -16 -114 -29 -141 -29 -36 0
-58 -6 -77 -21 -25 -20 -46 -19 -46 3 0 6 -7 19 -16 29 -9 10 -17 40 -18 70
-2 30 -13 95 -24 144 -11 50 -26 129 -33 178 -13 83 -30 112 -41 70 -3 -10
-55 -91 -116 -180 -61 -89 -131 -203 -157 -253 -42 -81 -47 -95 -41 -134 7
-47 -2 -61 -32 -52 -26 9 -57 65 -71 131 -8 33 -20 87 -28 120 -8 33 -19 83
-23 110 -10 61 -37 161 -50 184 -7 11 -9 -7 -10 -59 0 -95 18 -387 29 -460 9
-56 6 -80 -10 -80 -24 0 -54 90 -89 265 -7 33 -14 66 -16 73 -7 23 -24 12 -40
-25 -9 -21 -23 -49 -31 -63 -23 -41 -88 -186 -98 -220 -11 -36 -75 -122 -89
-117 -18 7 -7 71 24 141 17 36 30 72 30 79 0 7 18 51 40 97 24 48 37 87 32 92
-5 5 -30 4 -58 -2 -88 -20 -152 -29 -173 -23 -39 10 -23 82 35 158 12 17 39
65 59 107 40 84 57 103 80 94 16 -6 20 -46 7 -62 -5 -5 -21 -40 -37 -79 -15
-38 -32 -74 -37 -79 -4 -6 -8 -23 -8 -38 0 -24 4 -28 29 -28 16 0 41 4 55 10
14 5 56 11 93 14 l68 5 -5 38 c-3 21 -5 89 -5 152 0 98 2 115 18 125 23 15 71
-11 75 -42 2 -12 7 -22 11 -22 13 0 31 24 31 41 0 23 32 32 73 23 17 -4 55 -6
82 -5 95 4 270 19 295 26 18 4 31 0 48 -15 l22 -21 0 34 0 35 58 -1 c31 0 104
7 162 15 58 8 134 16 170 16 63 1 64 0 35 -13z m2764 -123 c-13 -20 -31 -49
-41 -64 -10 -14 -18 -29 -18 -32 0 -4 -11 -23 -23 -44 -13 -20 -35 -57 -49
-82 -46 -82 -65 -114 -117 -198 -28 -46 -51 -85 -51 -87 0 -3 -20 -35 -43 -72
-24 -37 -61 -99 -82 -136 l-38 -69 -18 29 c-16 25 -17 34 -6 56 6 15 16 27 20
27 5 0 5 9 2 20 -4 11 -2 20 4 20 6 0 11 7 11 15 0 8 6 12 14 9 11 -4 13 0 9
15 -6 22 12 29 21 9 3 -7 3 -1 -1 15 -4 23 -3 26 13 20 11 -4 15 -3 10 5 -8
13 14 52 78 143 25 37 46 71 46 77 0 6 4 12 8 14 9 4 144 195 163 230 7 13 15
25 19 28 3 3 21 26 39 53 37 55 63 54 30 -1z m-724 -35 c11 -8 45 -27 75 -44
91 -50 152 -84 213 -119 32 -19 61 -34 66 -34 4 0 12 -5 18 -11 11 -11 -2 -30
-107 -151 -8 -9 -37 -46 -65 -82 -27 -36 -56 -65 -62 -65 -7 -1 -15 11 -18 27
-3 15 -10 41 -15 58 -6 17 -10 37 -10 46 0 9 -27 33 -60 54 -62 40 -70 53 -46
73 11 9 19 9 35 -1 29 -18 36 -4 17 37 -9 19 -23 52 -32 73 -9 20 -22 51 -30
67 -33 77 -35 85 -16 85 10 0 26 -6 37 -13z m747 -49 c-7 -7 -12 -8 -12 -2 0
14 12 26 19 19 2 -3 -1 -11 -7 -17z m-980 -29 c-23 -22 -348 -189 -367 -189
-49 0 21 45 270 176 68 35 102 48 107 40 4 -6 0 -18 -10 -27z m951 -4 c-3 -9
-8 -14 -10 -11 -3 3 -2 9 2 15 9 16 15 13 8 -4z m177 -289 c0 -295 1 -304 20
-309 17 -4 20 -14 20 -70 0 -36 -2 -71 -5 -79 -4 -10 -67 -13 -320 -12 -173 0
-317 3 -321 6 -3 3 13 37 37 75 55 90 73 120 136 233 l53 95 -7 -118 -6 -118
49 3 49 3 3 109 3 110 45 53 c25 29 50 53 55 53 5 0 8 -68 7 -167 l-3 -168 43
-3 42 -3 0 251 0 250 36 55 c63 95 64 92 64 -249z m-263 132 c-3 -8 -6 -5 -6
6 -1 11 2 17 5 13 3 -3 4 -12 1 -19z m-1253 -33 c4 -10 -1 -15 -14 -15 -13 0
-18 5 -14 15 4 8 10 15 14 15 4 0 10 -7 14 -15z m129 -37 c-20 -18 -51 -49
-68 -68 -76 -87 -125 -134 -125 -120 0 21 194 220 214 220 11 0 4 -11 -21 -32z
m1065 -33 c-3 -3 -9 2 -12 12 -6 14 -5 15 5 6 7 -7 10 -15 7 -18z m-1208 -29
c-14 -7 -51 -28 -84 -46 -35 -19 -57 -27 -54 -19 4 15 123 78 148 78 8 1 4 -5
-10 -13z m763 -189 c20 -22 37 -48 37 -57 0 -19 -31 -80 -40 -80 -11 1 -106
148 -140 215 -8 17 -25 47 -37 67 -13 21 -23 41 -23 45 0 7 143 -126 203 -190z
m404 161 c-3 -8 -6 -5 -6 6 -1 11 2 17 5 13 3 -3 4 -12 1 -19z m451 -201 c-21
-6 -28 -13 -24 -23 3 -9 1 -12 -4 -9 -6 3 -10 21 -10 39 l0 33 34 -16 33 -16
-29 -8z m-841 -139 c-3 -8 -6 -5 -6 6 -1 11 2 17 5 13 3 -3 4 -12 1 -19z m388
-162 c6 -2 -7 -11 -27 -21 -36 -18 -40 -18 -74 -2 -19 10 -33 21 -30 25 4 8
104 6 131 -2z m-146 -43 c20 -15 72 -64 116 -108 44 -44 107 -104 140 -134
103 -92 295 -282 295 -291 0 -33 -38 -5 -158 117 -76 76 -206 205 -290 287
-83 82 -152 151 -152 153 0 9 16 0 49 -24z m231 -306 c0 -11 -66 43 -74 61 -3
7 12 -2 34 -19 22 -18 40 -37 40 -42z m40 -32 c13 -14 21 -25 18 -25 -8 0 -48
36 -48 44 0 10 6 7 30 -19z m88 -83 c8 -7 13 -15 11 -17 -5 -4 -69 52 -69 61
0 7 22 -10 58 -44z m182 -172 c0 -5 -2 -10 -4 -10 -3 0 -8 5 -11 10 -3 6 -1
10 4 10 6 0 11 -4 11 -10z m30 -775 l-8 -40 -1 50 c-1 29 3 45 8 40 5 -6 6
-28 1 -50z m260 -272 c-1 -27 -1 -27 -15 -9 -19 25 -19 36 0 36 10 0 15 -10
15 -27z m-1237 -521 c36 -34 35 -75 -2 -135 -33 -50 -102 -103 -125 -94 -13 5
-13 13 0 64 14 60 32 140 40 181 4 20 9 23 32 17 15 -3 39 -18 55 -33z m-360
-133 c51 -23 83 -130 66 -224 -4 -27 -13 -86 -19 -130 -6 -44 -22 -127 -35
-185 -12 -58 -26 -140 -29 -184 -10 -129 -36 -160 -95 -110 l-33 27 7 96 c3
53 11 130 16 171 5 41 16 163 25 270 15 204 25 253 52 270 21 12 17 12 45 -1z
m620 -69 c40 -35 59 -73 124 -242 26 -71 50 -128 53 -128 3 1 14 20 26 43 108
217 184 352 198 355 22 5 43 -13 63 -52 13 -25 17 -74 19 -266 2 -129 4 -286
5 -347 2 -97 0 -116 -16 -133 -25 -28 -36 -25 -82 18 -36 32 -42 44 -48 94 -4
32 -6 122 -4 202 l4 144 -23 -42 c-13 -22 -44 -80 -68 -128 -60 -119 -69 -118
-129 20 -26 59 -52 119 -57 134 -16 45 -25 25 -32 -74 -4 -51 -11 -138 -15
-193 -10 -139 -26 -163 -95 -144 -26 7 -38 17 -42 36 -8 29 -1 159 21 413 8
96 15 205 15 241 0 36 3 69 7 72 14 15 44 6 76 -23z"/>
<path d="M9621 5203 c-12 -14 -12 -15 0 -11 8 3 22 1 33 -4 12 -7 22 -6 29 1
8 8 5 11 -9 11 -11 0 -24 4 -29 9 -6 6 -16 3 -24 -6z"/>
<path d="M9710 5209 c0 -5 5 -7 10 -4 6 3 10 8 10 11 0 2 -4 4 -10 4 -5 0 -10
-5 -10 -11z"/>
<path d="M9576 5165 c-4 -13 -2 -14 14 -5 23 13 26 20 6 20 -8 0 -16 -7 -20
-15z"/>
<path d="M9470 5001 c0 -5 9 -11 19 -14 14 -3 18 -1 14 9 -6 15 -33 19 -33 5z"/>
<path d="M5818 5060 c-1 -5 -1 -58 2 -117 4 -92 8 -108 23 -111 9 -2 17 2 17
8 0 7 29 54 65 106 36 52 65 101 65 109 0 12 -16 15 -84 15 -46 0 -86 -4 -88
-10z"/>
<path d="M5205 4988 c-22 -5 -78 -13 -123 -17 -46 -5 -87 -13 -92 -17 -9 -10
3 -61 44 -189 14 -44 26 -87 26 -97 0 -9 5 -20 10 -23 6 -3 10 -19 10 -35 0
-33 13 -46 27 -27 5 6 17 37 28 67 10 30 32 84 48 120 53 119 86 218 74 223
-7 2 -30 0 -52 -5z"/>
<path d="M5420 4846 c0 -13 -7 -59 -16 -101 -21 -100 -9 -112 43 -43 56 75 56
73 28 114 -14 20 -25 41 -25 45 0 5 -7 9 -15 9 -9 0 -15 -9 -15 -24z"/>
<path d="M6255 4395 c-71 -7 -136 -13 -144 -14 -17 -1 -10 -54 25 -171 14 -47
29 -98 33 -115 7 -27 30 -37 39 -17 1 4 50 76 107 161 58 84 105 157 105 162
0 5 -8 8 -17 7 -10 0 -76 -7 -148 -13z"/>
<path d="M11084 4447 c-17 -18 -94 -142 -150 -242 -6 -11 -23 -40 -37 -65 -15
-25 -39 -70 -54 -100 -15 -30 -35 -64 -45 -74 -17 -18 -24 -46 -13 -46 3 0 26
33 52 73 25 39 63 97 83 127 21 30 39 60 41 65 4 9 80 128 146 227 35 52 18
78 -23 35z"/>
<path d="M11558 3995 c-8 -25 -20 -126 -12 -105 3 8 10 24 15 36 6 11 9 36 7
55 -3 27 -5 30 -10 14z"/>
<path d="M11423 3808 c-35 -39 -41 -99 -9 -98 17 1 80 90 62 90 -8 0 -16 -6
-19 -12 -2 -8 -8 -9 -13 -4 -5 5 -4 11 4 13 13 5 17 33 4 33 -5 0 -18 -10 -29
-22z"/>
<path d="M11010 3751 c0 -11 59 -26 67 -17 4 3 -3 6 -15 6 -12 0 -22 5 -22 10
0 6 -7 10 -15 10 -8 0 -15 -4 -15 -9z"/>
<path d="M10678 3443 c12 -2 30 -2 40 0 9 3 -1 5 -23 4 -22 0 -30 -2 -17 -4z"/>
<path d="M10520 3330 c-41 -22 -85 -45 -97 -52 -24 -12 -32 -52 -13 -63 6 -3
10 -15 10 -26 0 -10 5 -19 10 -19 6 0 10 -6 10 -13 0 -22 68 -76 111 -87 36
-10 49 -8 94 10 43 18 57 29 75 65 19 38 22 53 16 102 -4 31 -15 71 -24 88
-16 26 -24 30 -68 33 -41 2 -61 -4 -124 -38z m84 -67 c-43 -6 -82 -42 -87 -83
l-4 -35 -1 36 c-3 56 29 89 81 87 34 -1 36 -2 11 -5z m1 -73 c3 -5 -1 -10 -10
-10 -9 0 -13 5 -10 10 3 6 8 10 10 10 2 0 7 -4 10 -10z"/>
<path d="M10821 2994 c0 -11 3 -14 6 -6 3 7 2 16 -1 19 -3 4 -6 -2 -5 -13z"/>
<path d="M11737 2899 c-4 -19 -3 -49 2 -65 12 -38 22 -144 13 -144 -4 0 -39
12 -77 26 -39 14 -79 28 -90 31 -11 3 -25 10 -32 15 -6 5 -13 5 -16 1 -3 -7
108 -481 142 -603 6 -19 17 -64 26 -100 9 -36 26 -105 39 -155 13 -51 20 -96
15 -105 -4 -8 -16 -40 -28 -70 -24 -68 -170 -455 -184 -492 -6 -15 -8 -30 -5
-33 3 -3 122 71 264 166 143 95 267 174 276 177 17 4 23 16 18 37 -2 6 -6 26
-11 45 -4 19 -12 51 -17 70 -6 19 -20 69 -31 110 -12 41 -39 145 -62 230 -57
216 -74 278 -109 410 -42 153 -65 241 -85 320 -9 36 -21 83 -27 105 -6 22 -11
45 -13 50 -1 6 -5 -6 -8 -26z"/>
<path d="M10470 1107 c-47 -16 -69 -33 -103 -84 -16 -23 -53 -64 -82 -90 -45
-41 -56 -59 -74 -118 -79 -256 -24 -519 124 -586 50 -23 126 -24 168 -3 117
60 171 128 215 269 45 144 54 215 42 330 -16 157 -72 246 -172 278 -63 19 -70
20 -118 4z m181 -147 c30 -37 49 -109 49 -184 0 -85 -39 -249 -76 -323 -41
-82 -119 -163 -157 -163 -29 0 -61 32 -83 85 -25 59 -31 235 -10 307 9 31 16
66 16 77 0 20 17 60 31 71 3 3 9 20 12 39 14 67 49 123 92 142 38 17 41 17 69
1 16 -9 42 -33 57 -52z"/>
<path d="M12176 1077 c-8 -12 -24 -47 -36 -77 -12 -30 -37 -85 -55 -122 -19
-36 -44 -89 -55 -117 -11 -28 -36 -74 -55 -102 -39 -58 -41 -65 -20 -76 13 -8
13 -15 -5 -58 -87 -220 -108 -289 -92 -299 20 -12 63 21 83 64 49 106 104 212
117 223 12 9 128 44 155 46 4 1 7 -41 7 -93 0 -151 58 -296 118 -296 55 0 57
7 54 157 -2 76 -7 167 -12 203 -15 104 -13 141 11 166 22 23 17 49 -7 40 -11
-4 -14 5 -14 37 0 23 -5 58 -11 77 -6 19 -10 57 -10 84 1 59 -15 87 -70 121
-69 44 -87 48 -103 22z m40 -320 l-4 -121 -33 -11 c-19 -7 -48 -15 -66 -18
l-32 -6 15 52 c40 138 67 208 86 222 12 8 25 12 30 9 4 -3 6 -60 4 -127z"/>
<path d="M12783 1076 c-18 -8 -52 -33 -76 -55 l-43 -40 -18 30 c-18 30 -20 31
-75 24 -68 -8 -92 -26 -67 -50 21 -21 20 -61 -4 -272 -10 -94 -22 -219 -26
-277 -9 -141 3 -160 116 -169 24 -2 25 1 27 53 1 30 8 88 17 128 9 40 16 86
16 101 0 16 6 34 14 40 21 18 57 -40 101 -164 20 -55 47 -119 60 -141 29 -49
74 -72 110 -56 43 20 46 42 15 106 -16 32 -35 66 -43 75 -14 16 -47 84 -47 95
0 4 -14 36 -32 72 -32 65 -32 66 -13 80 52 37 149 144 171 186 43 85 26 166
-48 221 -34 25 -113 32 -155 13z m54 -137 c-10 -78 -64 -186 -111 -221 -70
-51 -82 -8 -42 147 28 105 46 125 114 125 l45 0 -6 -51z"/>
<path d="M14153 1075 c-18 -7 -52 -33 -78 -56 -25 -23 -47 -40 -48 -38 -1 2
-9 16 -17 32 -14 29 -27 31 -98 18 -39 -8 -43 -7 -48 15 -7 28 -25 30 -85 8
-24 -8 -85 -19 -135 -24 -120 -12 -194 -37 -214 -72 -22 -40 -4 -52 80 -52
l70 0 0 -46 c0 -26 -7 -120 -16 -211 -22 -240 -52 -344 -109 -379 -25 -16 -39
-18 -58 -11 -62 24 -85 104 -48 165 11 17 21 51 23 76 3 43 2 45 -25 48 -23 3
-30 -2 -42 -32 -19 -46 -34 -181 -24 -224 11 -48 35 -79 79 -102 97 -50 190
-30 243 52 29 44 65 147 73 207 2 19 12 62 21 95 11 40 17 113 20 216 l3 155
59 20 c33 11 69 28 80 39 20 18 20 18 27 -9 4 -15 -3 -118 -16 -229 -40 -368
-38 -456 12 -456 11 0 28 -5 40 -11 11 -6 31 -8 45 -4 22 5 24 10 19 39 -4 18
2 75 14 130 11 54 20 111 20 127 0 15 5 31 11 35 23 14 56 -50 130 -245 13
-35 39 -80 56 -99 28 -30 37 -34 64 -28 69 14 74 42 24 131 -19 33 -44 83 -57
110 -13 28 -37 78 -53 112 l-31 61 82 76 c98 91 139 163 131 232 -12 106 -126
172 -224 129z m57 -119 c0 -30 -34 -127 -61 -176 -29 -51 -96 -100 -110 -79
-14 23 -11 72 13 166 23 94 38 113 93 124 40 7 65 -6 65 -35z"/>
<path d="M10985 1054 c-50 -18 -82 -48 -106 -99 -19 -40 -19 -41 1 -109 24
-85 29 -92 125 -191 42 -44 86 -93 96 -110 34 -53 20 -144 -29 -198 -30 -32
-47 -33 -122 -9 -72 22 -80 28 -80 57 0 18 -7 26 -25 31 -46 11 -58 -1 -53
-56 6 -65 42 -111 113 -146 46 -22 69 -27 133 -27 165 0 243 80 242 246 -1 68
-62 170 -140 235 -63 53 -140 158 -140 192 0 9 16 24 35 33 69 33 174 15 199
-34 16 -33 43 -36 57 -5 26 57 -24 146 -104 185 -51 25 -141 27 -202 5z"/>
<path d="M11650 1061 c-72 -23 -142 -83 -186 -157 -82 -140 -119 -396 -74
-517 34 -90 112 -147 202 -147 82 0 202 74 258 159 36 54 41 111 10 111 -13 0
-25 -14 -39 -45 -11 -25 -24 -45 -29 -45 -6 0 -29 -15 -51 -34 -60 -50 -76
-52 -122 -20 -50 34 -59 52 -74 136 -10 60 -9 79 11 165 29 129 68 231 105
276 26 31 37 37 70 37 l41 0 -4 -37 c-2 -31 1 -38 16 -41 28 -6 46 25 46 74 0
36 -5 46 -31 65 -34 24 -107 34 -149 20z"/>
</g>
</svg>
